<?xml version="1.0" encoding="UTF-8"?> <!-- Generator: Adobe Illustrator 23.0.1, SVG Export Plug-In . SVG Version: 6.00 Build 0) --> <svg xmlns="http://www.w3.org/2000/svg" xmlns:xlink="http://www.w3.org/1999/xlink" id="Layer_1" x="0px" y="0px" viewBox="0 0 525 488" style="enable-background:new 0 0 525 488;" xml:space="preserve"> <style type="text/css"> .st0{clip-path:url(#SVGID_2_);fill:#345B96;} .st1{clip-path:url(#SVGID_2_);} .st2{fill:#FFFFFF;} .st3{fill:#5392CF;} .st4{clip-path:url(#SVGID_2_);fill:#5392CF;} .st5{fill:none;stroke:#000000;stroke-width:0.75;stroke-linecap:round;stroke-linejoin:round;stroke-miterlimit:10;} .st6{fill:none;stroke:#5392CF;stroke-width:0.75;stroke-linecap:round;stroke-linejoin:round;stroke-miterlimit:10;} .st7{fill:#345B96;} .st8{stroke:#000000;stroke-linecap:round;stroke-linejoin:round;stroke-miterlimit:10;} .st9{fill:none;stroke:#000000;stroke-linecap:round;stroke-linejoin:round;stroke-miterlimit:10;} .st10{fill:none;stroke:#000000;stroke-width:0.5;stroke-linecap:round;stroke-linejoin:round;stroke-miterlimit:10;} .st11{fill:none;stroke:#5392CF;stroke-linecap:round;stroke-linejoin:round;stroke-miterlimit:10;} .st12{fill:none;stroke:#5392CF;stroke-width:0.5;stroke-linecap:round;stroke-linejoin:round;stroke-miterlimit:10;} </style> <g> <defs> <path id="SVGID_1_" d="M503.8,266.1c-5.3,57.1,22.4,79.5-23.5,142.6C425.6,484.1,169.9,522.1,57.9,448 c-77.4-51.2-39.5-117-14.7-162.9C82.3,212.9,61.7,146,155.3,61.4c76.3-69,230.1-83.2,309.4-25.2 C567.3,111.3,509.1,208.3,503.8,266.1z"></path> </defs> <clipPath id="SVGID_2_"> <use xlink:href="#SVGID_1_" style="overflow:visible;"></use> </clipPath> <path class="st0" d="M65.6,330.3c-39-2.7-142.4,2.1-141.7-65.2c0.6-57.6,10.8-116.8,74.3-190.5S130.4-19.6,198.2-37.1 c134.9-34.7,226.4-32,322.1,14.9C616,24.7,668.3,125.2,675.8,195.9c7.8,73.2-6.9,136.3-93.9,136.3c-39.4,0-197.4-4.7-246.6-4.7 C257.2,327.5,105.5,333,65.6,330.3z"></path> <g class="st1"> <path class="st2" d="M315.2,236.9c-1.7,1.7-4.4,1.7-6.1,0c-1.7-1.7-1.7-4.4,0-6.1c0.4-0.4,0.8-0.7,1.3-0.9 c-1.1,0.1-2.2,0.6-3.1,1.5c-2,2-2,5.3,0,7.3c2,2,5.3,2,7.3,0c0.9-0.9,1.4-2,1.5-3.1C315.8,236,315.5,236.5,315.2,236.9z"></path> </g> <g class="st1"> <path class="st3" d="M277.8,277.8c14.4,0,21.6-8.6,32.9-6.8c8.6,1.3,16.6,5.3,25.3,6.8c5.6,1,11.4,1,17,0c5-0.9,9.7-2.9,13.8,0.7 c4.2,3.8,8.8,2.1,13.9,0.9c4.8-1.2,7.9,1.6,12.5,0.8c5-0.9,9.9-2.5,15-2.7c4-0.1,7.9,1.2,11.7,2.1c3,0.7,6.5,2.3,9.7,2.1 c4.5-0.3,8.8-1.9,13.5-2c10.3-0.2,15.3,4.7,25.5,3.7c8.3-0.8,16.5-2.1,24.6,0.1c9.5,2.5,17.8-1.7,28.7,2.5 c10.8,4.2,16.7,5.6,16.7,5.6H238c0,0,11.9-11.2,19.6-13.3C265.3,276.1,270.4,277.8,277.8,277.8z"></path> <path class="st3" d="M23.4,260.7c8.6,1.3,16.6,5.3,25.3,6.8c5.6,1,11.4,1,17,0c5-0.9,9.7-2.9,13.8,0.7c4.2,3.8,8.8,2.1,13.9,0.9 c4.8-1.2,7.9,1.6,12.5,0.8c5-0.9,9.9-2.5,15-2.7c4-0.1,7.9,1.2,11.7,2.1c3,0.7,6.5,2.3,9.7,2.1c4.5-0.3,8.8-1.9,13.5-2 c10.3-0.2,15.3,4.7,25.5,3.7c8.3-0.8,16.5-2.1,24.6,0.1c9.5,2.5,17.8-1.7,28.7,2.5c10.8,4.2,16.7,15.9,16.7,15.9H-9 C-9,291.5,12.1,258.9,23.4,260.7z"></path> </g> <g class="st1"> <path d="M273.2,265.6c0.7-4.3,5.7-6.8,9.5-4.3c1.3-2.9,4.4-4,7.2-3.3c-0.2-3.4,3.3-7.7,7-7.2c0-6.3,9.6-7.7,8.1-0.6 c4.9,0.6,5,6.5,5,10.2c1.4-1.3,3.5-0.8,4.8,0.3c0,0,0.8-0.7,2-0.7c1.2,0,2.1,0.5,2.1,0.5c-0.6-2.8,1.4-3.8,2.9-4.3 c0.8-0.2,2.8-0.3,3.4-0.9c0.8-0.9,0.1-1-0.4-1.4c-0.6-0.7-1.4-0.8-1.2-1.9c0.1-0.7,1.3-1.5,1.8-1.8c0.5-0.3,1.8-0.4,1.9-1.1 c0.1-0.5-1.1-1.2-1.3-1.8c-0.8-2.4,1.9-2.4,3-3.6c-1.6-1.1-1.8-2.6-0.7-4.2c1.4-2,1.6-2,1.5-4.5c-0.1-1.4,1.5-4.2,2.6-1.9 c0.4,0.8-0.2,1.8-0.3,2.6c0,1,0.3,1.3,0.7,2.1c1.1,2.1-0.2,2.9,0,5c0.2,2.1,2.3,2.9,1.6,5.3c-0.3,0.9-0.9,1.5-0.8,2.4 c0.1,0.9,0.9,1.6,1.2,2.4c0.7,1.9-0.4,3.6,0.4,5.4c0.4,1,1.2,1.6,1.1,2.8c-0.1,0.8-0.9,1.6-0.7,2.4c0.6,2.2,4.3,1.7,3.1,4.9 c1.7,0,3.3,0.6,4,2.4c0,0,0.3-1,0.6-1.7c0.6-1.5,3.1-0.9,1.9-2.8c-0.8-1.4-1.7-1.7,0.1-2.9c0.5-0.3,1.4-0.3,1.6-1 c0.2-0.6-0.6-1.1-0.6-1.7c-0.1-1.1,1.2-2.6,2.4-2.6c0,0.6-0.6,1.3-0.5,1.8c0.2,0.9,1,0.6,1.6,1.2c1.4,1.5-0.6,2.6-0.2,4.1 c0.4,1.3,2,1.2,1.5,3.1c-0.1,0.5-0.9,1.1-0.8,1.7c0.1,0.9,0.7,0.5,1.4,1.1c1.9,1.6,0.2,2.7-0.5,4.3c1,0.8,2.5,1.4,3,2.5 c0.6,1.3-0.6,2.8,0.7,3.5c0.5,0.3,1.9,0,2.5,0.1c0.8,0.2,1.4,0.5,2.1,1c0.6,0.4,3.5,1,2.7,3.3c0,0-72.3-0.5-90,0.9L273.2,265.6z"></path> <path d="M439.1,272.3c-0.1,0-0.1,0-0.2,0c-0.1,0.1-0.2,0.2-0.4,0.4c-0.1,0.1-0.3,0.3-0.3,0.3c-0.2-0.1-0.4-0.5-0.6-0.7 c-0.2-0.3-0.3-0.5-0.5-0.5c0,0,0,0,0,0c-0.2,0-0.2,0.2-0.4,0.4c-0.1,0.2-0.3,0.5-0.5,0.7c0-0.1-0.1-0.1-0.1-0.2 c-0.3-0.7-0.5-0.9-0.7-0.9c-0.2,0-0.3,0.2-0.5,0.6c-0.1,0.2-0.4,0.7-0.5,0.7c-0.1,0-0.3-0.4-0.4-0.6c-0.2-0.3-0.3-0.6-0.6-0.6 c-0.2,0-0.4,0.2-0.6,0.6c-0.1,0.2-0.4,0.6-0.5,0.6c-0.1,0-0.3-0.4-0.4-0.6c-0.2-0.4-0.4-0.7-0.6-0.7h0c-0.2,0-0.4,0.3-0.6,0.6 c-0.2,0.2-0.3,0.5-0.6,0.7c-0.1-0.2-0.2-0.4-0.3-0.6c-0.1-0.3-0.3-0.6-0.5-0.8c0,0-0.1-0.1-0.1-0.1c0,0-0.1,0-0.1,0.1 c-0.2,0.2-0.4,0.5-0.6,0.8c-0.2,0.3-0.5,0.7-0.6,0.8c-0.2-0.2-0.5-1.2-0.7-1.8c-0.1-0.3-0.2-0.5-0.2-0.7c0-0.1-0.1-0.1-0.2-0.1 c0,0,0,0,0,0c-0.1,0-0.1,0-0.2,0.1l-1.2,2.5c-0.1-0.3-0.2-0.6-0.3-0.9c-0.2-0.7-0.5-1.3-0.7-2c0-0.1-0.1-0.1-0.2-0.1 c-0.1,0-0.2,0-0.2,0.1c-0.2,0.4-0.4,1-0.7,1.6c-0.3,0.7-0.6,1.5-0.8,1.8c-0.1-0.3-0.3-1.1-0.5-1.7c-0.2-0.8-0.4-1.7-0.6-2.3 c0-0.1-0.1-0.1-0.2-0.1c-0.1,0-0.1,0-0.2,0.1c-0.4,0.7-0.9,2.1-1.3,3.3c-0.2,0.7-0.5,1.5-0.7,1.8c-0.1-0.4-0.3-1.1-0.4-1.7 c-0.3-1.2-0.6-2.6-1-3.6c0-0.1-0.1-0.1-0.2-0.1c-0.1,0-0.1,0-0.2,0.1c-0.7,1.4-1,2.1-1.4,3.1c-0.1,0.4-0.3,0.8-0.5,1.2 c-0.3-0.9-0.4-1.8-0.6-2.6c-0.2-1-0.4-2-0.8-3.1c0-0.1-0.1-0.1-0.2-0.1c-0.1,0-0.1,0-0.2,0.1c-0.7,1.3-1.1,2.9-1.6,4.6 c-0.1,0.3-0.2,0.6-0.2,0.9c-0.3-1-0.5-1.8-0.7-2.7c-0.2-1-0.4-2-0.9-3.4c0-0.1-0.1-0.1-0.2-0.1c-0.1,0-0.1,0-0.2,0.1 c-0.4,1-0.7,2.2-1.1,3.4c-0.3,1.1-0.7,2.5-1,2.9c-0.2-0.4-0.6-1.9-0.9-3c-0.2-0.8-0.4-1.6-0.6-2.3c0-0.1-0.1-0.1-0.2-0.1 c-0.1,0-0.2,0-0.2,0.1c-0.5,1-0.9,2.7-1.2,4.2c-0.2,0.9-0.5,2-0.6,2.3c-0.3-0.5-0.8-2.4-1.1-4.2c0-0.1-0.1-0.1-0.2-0.2 c-0.1,0-0.2,0-0.2,0.1c-0.5,1.1-1,2.8-1.5,4.2c-0.4,1.3-0.9,2.7-1.1,3.2c-0.2-0.4-0.6-1.6-0.8-2.5c-0.3-0.9-0.5-1.8-0.8-2.4 c0-0.1-0.1-0.1-0.2-0.1c0,0,0,0,0,0c-0.1,0-0.1,0-0.2,0.1c-0.6,1.5-1.1,3.3-1.5,4.6c-0.2,0.8-0.4,1.5-0.6,1.9 c-0.1-0.3-0.3-1.1-0.5-1.7c-0.3-1-0.6-2.1-0.9-2.8c0-0.1-0.1-0.1-0.2-0.1c-0.1,0-0.1,0.1-0.2,0.1c-0.3,0.7-0.6,1.9-0.9,3 c-0.2,0.8-0.5,1.8-0.6,2.1c-0.2-0.4-0.7-1.5-1-2.6c0-0.1-0.1-0.1-0.2-0.1c-0.1,0-0.2,0-0.2,0.1c-0.3,0.8-0.6,1.9-0.8,2.8 c-0.2,0.8-0.5,1.8-0.6,2.1c-0.2-0.3-0.6-1.6-0.8-2.1c-0.1-0.2-0.1-0.4-0.1-0.5c0-0.1-0.1-0.1-0.2-0.1c-0.1,0-0.2,0-0.2,0.1 c-0.4,0.9-0.7,1.5-0.9,2.2c-0.2,0.4-0.4,0.9-0.6,1.4c0-0.1-0.1-0.2-0.2-0.3c-0.3-0.6-0.8-1.4-1.2-2.2c0-0.1-0.1-0.1-0.2-0.1 c-0.1,0-0.1,0-0.2,0.1c-0.6,1.3-0.9,2-1.4,3.2c-0.3-0.8-0.8-2.1-1.1-3.1c0-0.1-0.1-0.1-0.2-0.1c-0.1,0-0.2,0-0.2,0.1 c-0.3,0.7-0.5,1.3-0.8,2c-0.5,1.2-1.1,2.5-1.4,3.8c0,0.1,0,0.1,0,0.2c0,0,0.1,0.1,0.1,0.1l37.4,1c0,0,0,0,0,0c0,0,0,0,0,0 c0.8,0,2.5-0.1,6.5-2.6c4-2.5,6.2-3.7,8.6-3.9c0.9-0.1,1.8-0.2,2.9-0.2c1.5,0,2.8,0.1,2.8,0.1c0.1,0,0.1,0,0.1,0 c0,0,0.1-0.1,0.1-0.1l0.2-8.8C439.3,272.4,439.2,272.4,439.1,272.3z"></path> </g> <g class="st1"> <path class="st3" d="M300.1,258.5c1-0.8,18.7-3,22.8-2.1c4.1,0.8,7.5,4.3,8.4,5.6c0.9,1.3,1,3.4,2.2,5.4c1.2,2,2.8,1.7,3.2,5 c0.4,3.3,0.3,6.9-0.5,8.5c0,0,0.2,2-0.3,3.4h-3.3c0,0-0.6-0.8-0.7-2.1c0,0-0.3,1.6-0.8,2.4H326c0,0-0.9-1.4-0.9-3.9 c0,0-16.8,0.6-19.2,0.7c0,0,0.2,1.9-0.4,3.4c0,0-3.5,0-4.3,0c-0.8,0-1.2-2.3-1.2-3.1h-1.4c0,0-0.5,2.3-1,3.4c0,0-5,0-6.2,0 c0,0-1.1-2-1.2-4c0,0-3,0.3-2.9-1.4c0.1-1.8,0.4-2.1,0.8-2.6c0.3-0.5,1.4-0.7,1.7-0.8c0.3-0.1-0.7-2.7,0.4-5 c1.1-2.3,2.5-1.9,3.6-3.4C294.9,266.3,297.1,260.7,300.1,258.5z"></path> <g> <path d="M297.2,266.9c5-1,23.4-1.5,27.8-1.2c0,0-0.8-4.4-2.3-6c-1.5-1.6-18.7-0.1-20.5,0.7C300.4,261.2,297.2,266.9,297.2,266.9z "></path> <path d="M325.5,259.5c0.4,1.7,0.8,4.6,1.3,6.2c1.6,0.3,3.2,1.3,4.9,2c-0.4-1.4-0.9-4.2-1.8-5.5 C329.1,260.8,327,259.8,325.5,259.5z"></path> </g> <g> <path class="st2" d="M300.3,274.1l14.4-0.6c0,0-0.4,1.4-1.1,2.3c-0.7,0.8-11.3,1.4-12.3,1.1C300.3,276.6,300.3,274.1,300.3,274.1 z"></path> <path class="st2" d="M318,275.7c0,0,7-0.3,8.1-0.5c1.1-0.2,0.1-2.8-0.4-3c-0.5-0.3-4,0-5.1,0.1C319.5,272.3,318,275.7,318,275.7z "></path> <path class="st2" d="M290.8,275.9c0,0,5.4,0.7,6.5,0.6c0.1-0.8-0.8-2.7-1.5-3.2c-0.8-0.5-3.5-0.4-4.1-0.4 C291,272.9,290.8,275.9,290.8,275.9z"></path> </g> </g> <g class="st1"> <rect x="406.9" y="282.4" width="0.3" height="5"></rect> <rect x="412" y="284.5" width="0.3" height="3.9"></rect> <rect x="416.4" y="283.9" width="0.3" height="4"></rect> <rect x="421" y="281.1" width="0.3" height="5.2"></rect> <rect x="425.3" y="279" width="0.2" height="4.3"></rect> <rect x="428.8" y="278.3" width="0.1" height="3.8"></rect> <rect x="432.3" y="278.1" width="0.1" height="3.5"></rect> <rect x="435.2" y="278.5" width="0.1" height="3"></rect> </g> <path class="st4" d="M409.7,293.4c8.2-3.6,13.7-11.9,23.3-12.3c2.2-0.1,4.4,0,6.6,0.1c0.1,2.2,0,12.9,0,12.9L409.7,293.4z"></path> <g class="st1"> <path class="st2" d="M426.7,286.8c0.6-0.5,1.2-1,1.8-1.5c0.4-0.3,0.6-0.3,1.1-0.3c-0.5,0.4-1,0.8-1.3,1.2 c-0.2,0.2-0.6,0.5-0.8,0.7H426.7z"></path> <path class="st2" d="M430.3,283.8c0.4-0.4,1.2-0.8,1.8-1.1c0.2-0.1,0.4,0,0.7,0c-0.4,0.2-0.9,0.3-1.9,1.1L430.3,283.8z"></path> <path class="st2" d="M434.1,282.3c0.7-0.3,1.2-0.3,1.8-0.4c-0.8-0.2-1.6,0.1-2.3,0.3L434.1,282.3z"></path> </g> <path class="st4" d="M64.9,285.6c48.2-0.6,219.4-1.2,250.1-1.6c24.8-0.3,91.5,1.5,121.7,3c7.1,0.4,12.9,0.7,15.2,0.4 c0,0,12.2,7.9,29,23.7c15.6,14.6,33.8,30.4,44.4,37.8c13.4,9.3,121.4,46.1,145.9,107.8c24.5,61.7-125.7,104.1-309.4,104.1 c-201.6,0-415.6-19.6-453.6-165.9C-126.5,261.6,16.7,286.2,64.9,285.6z"></path> <g class="st1"> <path d="M423,286.4c0,0.6,5.9,1.6,6.9,2.5c1,0.9-4.4,1.4-1.3,2.3c2.9,0.9,8.3,1.2,8.8,1.9c0.4,0.7-11.7,0.9-11.2,2.4 c0.4,1.5,18.6,3.4,18.9,4.2c0.3,0.9-9.7,0.3-9.2,1.7c0.5,1.4,10.1,3.7,10.4,4.6c0.3,0.9-4,1.7-2.6,2.6c1.4,0.9,7.4,1.9,10.6,3 c-6.6,2.3-23.1,0-23.2,3c-0.1,2.9,22.6,6,21.7,7.8c-0.9,1.7-20.9,0.9-19.5,3c1.4,2,12,2.9,16.7,3.9c5.3,1.1,11.1,2.1,11.1,4 c0,1.9-15.6-0.7-13.9,2.2c1.7,2.9,16.8,4.1,17.8,7.2c1.1,3.1-8.8,2.9-8,7.1c0.7,4.2,4.4,6.2,11.7,9.9c3.6,1.9,18.3,5.5,19.4,10 c0.7,2.7-10,4.2-7.9,7.6c5,7.9,27.1,8.9,33.6,14.3c9.4,7.8-9.7,10.7-10.4,19.3c-0.9,11.3,22.2,28.6,30.4,33 c38.9,20.5,36.7,26.7,46.4,51.8c9.7,25.1,37.5,28.7,59.7,15.1c12.2-7.5,49.4-46.5-2.8-101.1c-25.2-26.3-55.1-48.8-85-69.3 c-19.2-13.1-80.9-40.2-100.4-52.8c0,0-12.2-0.1-15.2-0.4C433.4,286.6,423,286.4,423,286.4z"></path> </g> <g class="st1"> <g> <rect x="212.9" y="272.6" width="41.7" height="14.7"></rect> <path class="st2" d="M278.9,274.4l-24.2-1.8v14.7c0,0,6-1.1,13.2-1.8c3.7-0.4,7.7-1,11.5-1C279.3,284.5,278.7,278.3,278.9,274.4z "></path> <polygon class="st3" points="279.6,274.8 279.6,245.1 251.7,242.9 253.2,272.8 "></polygon> <path class="st3" d="M285.3,249.3l-16.7-28.6c0,0-29.5-11.6-35.4-14.9l22.7,37.3L285.3,249.3z"></path> <polygon points="203.5,238.9 233.2,205.8 255.9,243.1 253.2,246 253.2,272.8 207,272.8 207,242.2 "></polygon> <polygon points="233.2,205.8 201.1,241.5 204.4,244.8 208.2,244.8 232,216.4 "></polygon> <polygon class="st3" points="204.4,244.8 232.4,213 233.5,214.7 207,244.9 "></polygon> <g> <g> <polygon class="st3" points="230.3,226.3 234.7,226.3 234.7,234.7 229.7,234.7 "></polygon> <polygon class="st3" points="237.1,248.3 245.5,248 245.5,261.7 237.1,261.7 "></polygon> </g> </g> <g> <polygon points="257.8,274 257.8,286.8 262.1,286.2 261.7,274.3 "></polygon> <polygon points="264.6,274.6 264.7,285.9 267.2,285.6 267,274.7 "></polygon> </g> <polygon points="285.3,249.3 282.7,251.7 253.2,246 255.9,243.1 "></polygon> <polygon points="280,250.3 279.6,259.6 252.9,254.6 253,244.7 "></polygon> <g> <polygon points="245.3,211.2 252.8,220 252.8,200.4 251,200.4 251,203.2 247,203 247,200.4 245.5,200.4 "></polygon> <polygon points="253.2,201.2 243.5,201.2 243.5,198.4 252,198.5 "></polygon> </g> <g> <path class="st3" d="M257.9,200.7h-1.1v3.2l-2.3-0.2v-3.2h-1.8V220c0,0,4.4,3.3,7,5.2c0,0-0.9-9.1-1.3-14.6 C258.1,205,257.9,200.7,257.9,200.7z"></path> <path class="st3" d="M252,198.5l0,2.7c0,0,7.3,0.8,8.2,1c0,0-0.1-1.8-0.2-2.8L252,198.5z"></path> </g> </g> <g> <polygon class="st2" points="258.7,251 258.7,263.1 267,264.2 267,253.1 "></polygon> <polygon class="st2" points="272.7,254.6 272.9,265.1 276.6,265.5 276.4,255.6 "></polygon> </g> </g> <path class="st4" d="M249,288.4c0,0-0.8-17.2-0.8-20.1c0,0-10.7-1.2-23.1-2.7c-13.6-1.6-29.1-8.5-34.7-9.2v43.7 c0,0,31-4.1,37.4-5.7C234.3,292.8,249,288.4,249,288.4z"></path> <g class="st1"> <path class="st5" d="M246.8,267.1c0.4,5.7-0.3,15.7,0.5,20.2"></path> <path class="st5" d="M245.1,266.6c-0.3,5.2,0.2,18.4,0.1,21.3"></path> <path class="st5" d="M243,266.8c-0.4,6.7,0.2,19.3,0.2,21.5"></path> <line class="st5" x1="240.8" y1="266.6" x2="241" y2="288.9"></line> <path class="st5" d="M238.9,266.1c0,0,0.1,16.9-0.1,23.3"></path> <path class="st5" d="M236.3,290.1c0,0,0.1-21-0.1-25.1"></path> <path class="st5" d="M233.7,264.8c0,0,0,16.3-0.1,26.5"></path> <path class="st5" d="M230,264.9c0,0,0.1,17.5-0.2,27.7"></path> </g> <g class="st1"> <path d="M90.7,301.1c0,0-135.8-1.3-151.4-1.3s36-17.8,65.9-17.8c14.4,0,92.8,0,92.8,0L90.7,301.1z"></path> <path d="M8.2,254.3c-2.2,0.4-4.8-0.8-3.4-3.2c0.9-1.5,3.2-0.8,4-1.9c1.1-1.7-1.9-2-1.2-4c0.5-1.6,3.2-1.5,4.1-2.8 c-5.2-1.3,1-4.6,1.5-5.7c0.9-1.8-1.5-1.5-1.2-3.5c0.2-1.4,2.4-1.8,3.2-2.8c-1.3-0.9-3-0.5-1.8-2.6c0.7-1.3,2.6-1.1,2.9-2.7 c-2.1-0.6-1.9-2.3-1.2-3.8c1-2.2,2.4-1.8,0.9-4.1c-0.9-1.4,0.4-1.9,1.2-4c0.7-1.9,0.3-4.6,1.8-4.3c1.4,0.4,0.6,2.4,0.9,3.5 c0.2,1,1.6,2.5,1.9,3.3c0.6,1.6-1.5,2.2-1.1,3.3c0.4,1,2.2,1.2,2.5,2.1c0.5,1.3-1,1.6-0.9,2.7c0.2,1.9,3.8,1.6,0.6,4.5 c3.5,2.6,0.3,3.9,0.7,5.5c0.2,0.8,2,2.6,2.2,3.7c0.3,1.3-2.6,2.7-1.4,4.2c0.6,0.8,2,0.7,2.7,1.3c2.4,1.9,1.4,2.8-1.1,3.5 c-0.2,1.7,3.4,1.4,3.6,3c0.4,2.2-2.8,0.7-1.1,2.7c2.4,2.8,3.1,3-0.5,5.5c1.7,0.8,5,2.1,4.4,4.5c-0.4,1.8-4.3,2.4-3.8,4.1 c0.5,2.1,6.5,1.2,5.4,4.7c-0.8,2.6-4.9,2.1-1.4,3.5c2.2,0.9,6.5,7.9,3.6,10.8c-2.5,2.5-7.9,2.5-11.1,2.7 c-9.2,0.7-17.7,0.2-26.5-2.8c-2-0.7-9.7-2.6-6.3-9.3c1-1.9,4.9-3.2,6.6-4c-1.6-1.6-6.1-3.3-2.9-6c2.1-1.8,6.1-1.1,7.4-4 c-1.1-1.6-6.2-2.8-2.7-4.9c1.6-1,5.7-0.6,7.6-1.3C9.6,255,9,254.1,8.2,254.3z"></path> <path d="M55.3,257.2c3.4-3.1-7.2-4.7-6.7-8.1c0.3-2.1,5.1-0.8,3.9-4.3c-0.6-1.7-4-2-4.1-2.9c-0.1-1.1,2.2-1.3,2.5-2.2 c0.4-1.2-0.7-2.2-1.4-3.2c-0.9-1.3-3.5-2.2-3-4.4c0.3-1,1.7-0.7,1.5-2.1c-0.2-0.9-1.6-1.2-2.1-1.7c-0.7-0.6-2-1.1-2-2.3 c0-1.2,2.9-0.6,2.3-2.6c-0.3-0.9-1.9-0.9-2.2-1.9c-0.3-0.9-0.4-2.9-0.7-3.9c-0.3-1.3-2.4-2.8-2.4-0.1c0,0.9,0.8,1.4,0.7,2.4 c-0.1,0.9-2.3,2.2-2.8,2.8c-1.9,2.4,1.2,1.4,2.3,3.2c-1.2,0.6-4.1,1.9-4.3,3.8c-0.2,2.6,3.5,1.7,3.7,3.1c0.1,0.9-5.8,3.4-6.4,4.8 c-1.2,2.8,3.1,2,3.3,4.1c0.1,1.4-4.2,1.7-6.1,6.4c-1.7,4.1,4.6,2.3,4.5,4.7c-0.1,2.4-3.8,4.5-4.9,5c-2.4,1.1-7.4,5.7-4.2,9.7 c1.2,1.5,4.4,2.8,3.7,3.7c-1.3,1.7-8.5,3.5-6.8,7.5c1.3,2.9,3.9,3.1,1.2,6.3c-0.8,1-2.2,2.1-1.9,3.8c0.4,2.2,3.6,3.2,5.1,3.7 c6.4,2.2,19.1,2.5,25.6,0.7c5.6-1.6,14.6-10.3,7.3-19.1c-1.4-1.7-5.8-3.2-3.6-4.7c1.6-1.1,4.6-2.3,2.6-4.9 c-2.3-2.9-4.7-2.8-5.9-4.5C53.1,258.4,54.6,257.8,55.3,257.2z"></path> </g> <path class="st1" d="M90.7,301.1c0,0-1.3-33.7-1.3-36.5c0,0,90.4-6.8,101.1-8.1v43.7L90.7,301.1z"></path> <g class="st1"> <path class="st2" d="M60.7,596.6c19.8-17.8,35.4-40.6,54.8-59.2c11-10.5,50.2-48.7,61.2-56.6c19.6-14.1,49.9-42.3,65.7-54 c-11.1,0-23.4-0.7-35.7-0.5c-9.2,4.9-21.6,16.3-30.5,22.4c-16,11.1-28.8,22-45,32.8C114,493,97,504.9,80.9,517.8 C61,533.7,8.2,575.5-4.7,598c0,0,13.8,0.7,33,0.7C47.6,598.7,60.7,596.6,60.7,596.6z"></path> <path class="st2" d="M294.3,357.9c10.9-8.8,17.1-13.8,26.7-19.9c4.6-3,9.2-6,13.3-9.3c1.6-1.3,2.8-1.8,3.9-2.1 c2-0.4,4.1-0.2,7.3-0.2c-6.2,4.9-11.2,9.9-17.9,15.6c-5.6,4.8-11.8,9.8-15.8,16.3c0,0-5.1,0-8-0.2 C300.7,357.8,294.3,357.9,294.3,357.9z"></path> <path class="st2" d="M355.1,306.9c1.1-0.8,8.7-6.3,10.9-8.1c1.8-1.5,4.1-3.3,5.2-4c0.6,0,2.3-0.1,3.5,0c-3.7,4-8.1,6.9-12.4,12.1 c0,0-2.4,0-3.4,0C358,306.9,355.1,306.9,355.1,306.9z"></path> <path class="st2" d="M377.6,289.2c2.4-1.3,4.6-3.6,7.6-4c1.9,0,3.6,0.1,4.9,0.2c-1.5,0-2.7,0.3-3.8,0.7c-2.3,0.9-2.9,2.2-4.5,3.5 c0,0-1.6-0.1-2.1-0.2C379.3,289.4,377.6,289.2,377.6,289.2z"></path> </g> <g class="st1"> <g> <path d="M-44.7,306.8c21.9,1.4,42.7,0.1,63.5,1.3c20.3,1.1,40.2,1.8,60.7,1.4c38.8-0.8,52.1,1.6,91.6,0 c7.2-0.3,18.3-0.2,24.6-0.7c9-0.7,18.1-1.4,27-2.7c-5.6,3.4,27.7,1.9,21.6,5.6c-8.7,5.3-31.2,9.3-46.8,10.3 c-11.5,0.8-66.6-2.8-78.1-2.2c-23.4,1.2-25.5-4.5-48.9-4.5c-32.1,0-38.6,1.3-70.4-1.7c-8.2-0.8-29.6-1.8-37.6-3.8 C-42.6,308.5-51.6,306.4-44.7,306.8z"></path> <path d="M195.7,308.8c0,0,31.7-2,55.8-9.6c24.1-7.6,32.5-10.7,30-8.6c-1.9,1.7-3.6,1.3-7.7,3.3c-4.1,2,2.6,2.7-6.4,5.3 c-8.8,2.6-4.3,3.7-10.2,6.6c-5.8,2.9-8.5,1.3-11.3,2.3c-2.8,1,2.5,1.7-2.2,3.8c-5.1,2.3-13.5,0.2-25.7,1.3 C205.9,314.4,195.7,308.8,195.7,308.8z"></path> <path d="M311.3,322.9c10.1,0.6,13,1.6,24.1,0c11-1.5,18.3-1.4,18.3-2.5c0-1.1-15.5-2.9-17.1-4.3c-1.6-1.4,6.1-1.8,12.5-1.9 c6.4-0.2,20.6-1.7,23.4-2.6c2.8-0.9-12.3-1.4-18-1.7c-5.7-0.3-75.2,0.4-81.7,1.7c-6.5,1.2,10.7,2.5,14.1,2.9 c3.4,0.5-14,2.9-21,3.1c-7,0.2-18.3,0-18.2,1.6c0.2,1.6,22,2.8,27.9,2.3c5.9-0.5,11.5-0.6,9.9,0.6c-1.6,1.2-2.2,2.2,4.2,2.8 c6.4,0.6,15.2,0.6,18.3,0C311.3,324.3,308.5,322.7,311.3,322.9z"></path> <path d="M380.5,321.4c-3.9-0.2-14.3-0.4-16.1-1.1c-1.8-0.7,4.4-1.7,9.6-2.3c3.3-0.4,9.6,0.7,14-0.2c4.1-0.8,13.8,0.9,14.4,1.9 C403,320.7,384.5,321.6,380.5,321.4z"></path> <path d="M384.1,329.3c-0.7,2.6,16.8,2.8,24.6,2.6c7.9-0.2,21.8-1,24.6-1.8c2.8-0.8-7.5-2-11.3-2.2c-3.8-0.2-18.3,1.1-25,0.4 C390.9,327.6,384.5,327.6,384.1,329.3z"></path> </g> <g> <g> <g> <path class="st2" d="M267.5,299.3c0.8-0.2,1.5-0.4,2-0.6c0.3-1.8-1.9-1.3-2-1.9c-0.1-0.6,2.2-2.1,0-2.6 c-1.1,0.3-5.6,1.7-6.7,2.1c-1.1,1.9,1.6,1.3,1.5,2.4c-0.1,1.2-3.4,2.3-3.8,4.1c-0.2,0.8,0.1,1.6,0.6,2 C262.2,302.6,259.9,301.5,267.5,299.3z"></path> </g> <path class="st2" d="M262,321.2c-1.5-0.9-1.8-2.3-1.4-3.5c1.9,0,4.1-0.1,7.1-0.2c0.1,0.2,0.2,0.5,0.2,0.7c0.3,1.1-0.5,3-1.2,3.2 C264.7,321.4,262,321.2,262,321.2z"></path> </g> <g> <path class="st2" d="M327,309.9c0,1.3,3.3,0.6,1.6,3.1c-1.1,1.6-0.8,3.2-0.1,4.9c1.1,2.6-2.4,3.3-0.7,5.7c1.4,0,5.5-0.5,7-0.7 c0.9-1.6-1.9-2.6-1.6-3.8c0.4-1.6,1.2-2.1,1-3.4c-0.1-1.3-2.1-1.2-1.5-3.2c0.5-1.7,2.9-2.7,1.2-2.7 C332.3,309.8,327,309.9,327,309.9z"></path> <path class="st2" d="M359.1,310.1c-0.8,0.2-1.5,3-0.5,3.4c0.8,0,4.9-0.4,5.5-0.6c0.6-0.2,1.1-2.6,0.3-2.6 c-0.6-0.1-1.6-0.1-2.4-0.2C361.1,310.1,359.7,310.1,359.1,310.1z"></path> <path class="st2" d="M388,317.8c0.6,0.2,0.6,3-0.2,3.5c-1.2,0.1-5.4,0.2-8.1,0.1c-1-0.1-0.9-3.1,0-3.3c0,0,1,0.1,2.9,0.1 C384.4,318.1,388,317.8,388,317.8z"></path> </g> <g> <path class="st2" d="M399.9,328.4c-0.7-0.1-2.3-0.1-2.3-0.1c-0.4,0.6-0.4,3.1,0,3.5c0.5,0.1,0.9,0.1,2.1,0.1 c0.3,0,0.5-0.6,0.6-1.3C400.3,329.9,400.1,328.4,399.9,328.4z"></path> <path class="st2" d="M414.7,331.7c-1.3,0.1-2.2,0.1-3.1,0.1c-0.8-1.5-0.6-3.3,0.4-3.6c0.1,0,1.6-0.1,1.7-0.1 C414.9,328.1,415.4,330.4,414.7,331.7z"></path> <path class="st2" d="M416.8,328c1.4-0.1,2.6-0.2,3.4-0.1c0.8,1.5-0.1,3.4-1.1,3.7C417.2,331.9,416.1,329.3,416.8,328z"></path> </g> </g> </g> <g class="st1"> <g> <polygon points="469.7,178.1 466.4,203.8 476.9,204.1 477.6,180 "></polygon> <polygon class="st3" points="469.7,178.1 464.4,184.2 462,206.1 466.4,203.8 "></polygon> <path d="M432.4,234.3l0.3-4.1l16-23.2c0,0,1.9,0.3,4.1,0.3s29.1-19.6,29.1-19.6s25.4,2.5,37.7,7.2c0,0,16.5,19.2,20.3,22.3 c3.8,3.1,7.2,3,9.4,3.6l0.3,3.2l-100.1-7.5L432.4,234.3z"></path> <path class="st3" d="M432.4,234.3c-0.2-1.6,0-2.8,0.4-4c0.8-2.4,2.4-4.5,6-10c5-7.7,8.1-13.1,9.4-13.8c1.3-0.6,4.5,1.1,7.1-0.6 c5.7-3.8,24.6-18.1,26-18.4c2.4-0.5,34.3,4.1,38.4,7.5c-1.4-0.2-9.9-2.6-17.3-3.8c-7.4-1.2-19.7-2.9-20.3-2.6 c-1.8,0.7-15.8,11.1-19.3,13.5c-2.4,1.7-4.9,3.3-7.5,4.8c-1,0.6-2,1.4-3.2,1.2l-2.9-0.1L432.4,234.3z"></path> <path d="M441,235.6l-8.6-1.3l17.1-24.6c0,0,40.6-4.8,100.1,14.3l-28.1,23.3L441,235.6z"></path> <polygon class="st3" points="436.9,287 437.5,273.8 440,233.1 457.2,215.3 454.9,263.8 453.1,291.6 "></polygon> <path d="M457.2,215.3c0,0,41,0.3,81.3,9.5l-4.4,72.5l-81.1-5.6l1.9-27.8L457.2,215.3z"></path> <polygon class="st3" points="506.9,268.8 454.9,263.8 453.1,291.7 509,295.6 "></polygon> <polygon class="st3" points="466.9,243.4 466.1,258.2 475.2,259.1 475.8,244.3 "></polygon> <polygon class="st2" points="468,220.5 467.1,235.3 476.3,236.1 476.8,221.3 "></polygon> </g> <path d="M490.9,219.2c0,0,122.3,30.8,153.2,35.4v48.6c0,0-60,14-153.2,20.5V219.2z"></path> <g> <g> <polygon points="442,254.2 444.1,251.7 443.6,264.8 441.2,267.3 "></polygon> <polygon points="451.4,245.8 448.7,248.5 447.6,262.3 450.1,260.4 "></polygon> </g> <g> <polygon points="443.4,235 445.5,232.5 445,245.6 442.6,248.1 "></polygon> <polygon class="st2" points="452.6,225.8 449.8,228.5 449,243.1 451.5,241.2 "></polygon> </g> <polygon class="st2" points="437.5,273.8 454.9,263.8 453.1,291.6 436.7,287 "></polygon> <path class="st2" d="M460.3,266.2c0,0,7.1-4.1,9.6-9c2.4-4.9,8.6-24.4,21-38v104.5c0,0-12.6-6.6-20.4-17.8 c-5.9-8.6-6.1-9.6-11.8-13L460.3,266.2z"></path> </g> <g> <path class="st6" d="M463,266.8c-0.9,13.5-1.3,24.1-2.7,34.7"></path> <path class="st6" d="M465.7,265.9c0.3,12.6-1.8,32-1.8,38.9"></path> <path class="st6" d="M469.6,259.6c-0.1,16.8-2.9,42.6-2.7,47.1"></path> <line class="st6" x1="471.8" y1="255" x2="470.4" y2="312.2"></line> <path class="st6" d="M474.9,255.6c0,0-0.9,44.3-0.9,59.6"></path> <path class="st6" d="M477.4,318.2c0,0,1.4-63.8,1.8-73.6"></path> <path class="st6" d="M482.4,236.7c0,0-1.4,61.2-1.1,86.2"></path> <path class="st6" d="M486.2,229.1c0,0-0.7,74.2-0.7,98.6"></path> </g> <path d="M491.3,338c-15.7-4.9-32.6-33.1-32.6-33.1v-12c5.7,3.5,5.9,4.5,11.8,13c7.7,11.2,20.4,17.8,20.4,17.8L491.3,338z"></path> <path d="M490.9,323.7c0,0,27.8,25.2,75.8,57.4c48,32.3,72.6,81.7,73.4,129.5c0,0,69.6-33.5,62.8-124.4c-4.5-59-38.4-80.8-58.7-83 C644.1,303.2,575.7,317.5,490.9,323.7z"></path> <polygon class="st3" points="449,272.2 446.3,274 445.3,289.5 447.8,290.2 "></polygon> </g> <path class="st1" d="M-2.7,389.4c20.9-0.3,31.1-4.8,46.3-10c13.1-4.5,27.3-11.1,40.4-15.7c13.9-4.9,27.1-11.4,41.4-15 c9.5-2.4,21.4-2,41.7-6.7c12.2-2.8,21.9-5.8,34.1-9.6c8.5-2.7,34.7-10.1,32.7-12.2c-2-2.1-61.2-2.3-92.4-0.6 c-26.1,1.4-60.7-1.9-86.1,1c-30,3.4-67.6-1.6-95.7,8.6c-6.8,2.5-27.9,9.5-33.3,15c-6.7,6.7,13.1,24,17.8,27.3 C-35.3,385.7-24.5,389.7-2.7,389.4z"></path> </g> <path d="M13.3,302.8c0,0-0.5,5.1-0.6,11.1c-0.1,3.8-0.5,9.6,0.3,13.2c1.5,7,68.9,5.3,85.5,4.1c16.7-1.2,36.8-3.3,41.6-7.2 c0,0-3.1-9-4.9-13.9L13.3,302.8z"></path> <path d="M9.4,319.7c61.2,1.2,132.5-2.4,193.3-8.5c10.2-1,18.8-2,24-9.9c2.9-4.4,4.7-10.9,5.2-20.9c0.8-14.9-10.9-24.7-16.1-37.5 c-5.3-13-4.8-29.2-19-35.4c-2.2-1-6.8-2.6-10.8-2.8c-28.4-1.5-93.5,6-103.7,16.8c-5.1,5.3-10.4,13.4-14.4,19.4 c-5.6,8.5-5.8,8.6-15.2,11.8c-8,2.7-23.8,7.8-30.3,13.7c-4.9,4.4-7,19.6-9.4,25.4c-4.7,1.8-8.3,1.2-11.1,5.4 C-2.9,304.6,2,319.6,9.4,319.7z"></path> <path d="M136.5,312c-0.8,8.8,0.5,21.5,7.2,27.7c2.4,2.2,21.6,1.9,24,0c9.3-6.9,8.2-26.2,7.9-36.5c-0.2-9.9-3.7-22.6-15.2-24.4 C139.3,275.5,137.7,297.8,136.5,312z"></path> <path d="M201.3,273.7c-11.9,4-7.3,29.7-6.1,42.3c0.9,9,4.7,9.2,13.8,9.6c9.4,0.4,12.4-1,14.4-8.8c2.2-9,2-22-0.1-32.3 c-0.5-2.5-3.1-9.3-4.9-10.9C213.9,269.8,205.9,272.2,201.3,273.7z"></path> <path class="st3" d="M165.6,288.5c-4.6,1.5-4.9,33.5,0.4,42.9c4.5-1.2,4.1-25.5,3.5-30.1C169.1,299,168.3,289.4,165.6,288.5z"></path> <path class="st3" d="M216.6,281.5c-1.1,2-1.1,12.5-1,17.5c0.1,3.8,0.2,7.8,0.7,11.6c0.4,2.7,0.8,6.5,2.3,8.3 c1.1-2.3,1.1-6.5,1.3-9.3c0.3-5.4,0.7-11.4,0.1-16.9C219.6,289.2,218.9,282.2,216.6,281.5z"></path> <g> <path class="st7" d="M67.7,251.6c2.8-7.4,11.7-21,16.7-25.1c6-4.9,42.3-2.5,48.6,2.5c-0.2,4.4-3.5,12.7-5.6,15.2 C124,248.3,67.7,251.6,67.7,251.6z"></path> <path class="st7" d="M176.4,227.5c-7.1-0.6-25.5,2.9-28.1,4.5c-3.3,1.9-8.6,10.4-10.6,15.2c6.9-1.2,31.6-2.1,37.9-3.9 C177.9,242.7,179.5,227.8,176.4,227.5z"></path> </g> <path d="M176.9,221.8c-4.6,0.4-10,0.5-13.9,3.3c-4.2,3-5.8,8.7-4.7,10.5c1,1.8,2.8,2.2,4.6,2.4c-5.9,1.7-9.6,10.7-11.9,16.2 c2.8,0.3,24.9-0.3,25.4-0.5c1.4-0.7,7-19.8,7-26.5C183.4,222.9,180.8,221.5,176.9,221.8z"></path> <path d="M104.4,255.6c3.4-18,12.4-35.8,14.2-39.3c-1,0.2-3,0-3,0c-4.5,8.7-14.1,26-16.2,39.7L104.4,255.6z"></path> <path d="M120.3,228.1c-4.6,0.4-11.7,0.5-15.6,3.3c-4.2,3-5.8,8.7-4.7,10.5c1,1.8,2.8,2.2,4.6,2.4c-8.2,1.9-11.3,10.7-13.6,16.2 c2.8,0.3,30-0.3,30.5-0.5c0.8-0.4,5.7-10.7,4.6-13.3c-1.1-2.5-4.9-3-6.1-3c6-2.6,6.8-7.9,6.8-10.3 C126.8,229.2,124.2,227.8,120.3,228.1z"></path> <path class="st3" d="M225.3,241.2c5.1,4.2,8,6,9.1,13.3c1.9,13,1.6,31.7,0.6,38.7c-0.6,4.6-6.1,7.6-8.3,8.1c2.1-9.4,1.7-30.8-4-37.1 c-2.8-3.1-5.9,1.6-7.6,4.7c-3.1,5.6-2.4,23.8-3.1,32.3c-8.4,3-23.5,3.3-32.1,3.1c0.2-7.4,0.1-14.4-1.8-22.6 c-1.4-5.8-5.7-18.2-12.5-12.6c-6.8,5.5-7.8,19.7-7.5,27c0.3,7.2,0.8,15.1,0.4,16.3c-0.9,2.7-9,10.4-18.6,11.5 c-3.8-11.7-4.7-25.7-2-37.2c2.6-11.1,6.2-21.2,12.2-28.9c6.2-8.1,18.1-7.8,23.2-21.6c3-8.2,6.1-32.4,12.7-31.6 c8.3,1,17.3,1.8,25.1,6.3C218.9,215.5,221.7,238.2,225.3,241.2z"></path> <path class="st3" d="M230.4,285.1c2.3-0.4,9.2-1,9.5,1.3c0.4,3.1,0.2,6-2,8.5c-2.1,2.4-9.5,6.8-11.2,6.5L230.4,285.1z"></path> <path d="M176.3,243.4c1.8-8.6,4.8-16.9,6.9-25.4c1.3-5.4,2.9-7.4,8.9-7.5c7.2-0.1,16.3,2.2,19.6,9.3c2.6,5.5,6,13.4,4.9,19.6 c-11.8,5-26.5,2.6-39,7.2"></path> <path class="st3" d="M175.4,242c2.4-1.2,5-1.8,5.4-4.3c0.3-2.1,0-5.6,1.8-7.2c2-1.6,11-1,12.2-0.1c1.2,0.9,3.5,6.4,1.5,8.8 c-2,2.4-10.2,0.3-13.4,2.9c-2.9,2.3-3.1,5-5.2,8.1c0,0-0.6-0.6-1.4-2.9C175.5,245.1,175.4,242,175.4,242z"></path> <path class="st3" d="M203.3,247.2c-0.3-17.1-3.6-34.2-4.4-37.3c0.6,0.1,1.2,0.4,1.2,0.4c2,7.9,5,23,5,36.1L203.3,247.2z"></path> <g> <g> <rect x="340.6" y="182.5" width="1.7" height="101.6"></rect> <path d="M341.5,188.6c0,0,11.4-5.6,15.4-7.1l-0.6-0.5c0,0-6.7,2.6-14.7,6.1L341.5,188.6z"></path> <path d="M356.3,181c0,0,2.5-1.2,3.2-1.5c0.7-0.3,6-0.5,6.6-0.2c0.6,0.3,0.7,2.1,0.7,2.1s-5.5,0.1-7.3,0.1c-1.5,0-1.3-0.6-3.6,0.2 L356.3,181z"></path> </g> <g> <rect x="369" y="245.3" width="1.2" height="39.5"></rect> <path d="M370,250.1c0,0,7.6-4.1,10.3-4.9l0-0.4c0,0-4.7,1.8-10.3,4.2L370,250.1z"></path> <path d="M380.3,244.8c0,0,1.7-0.8,2.2-1.1c0.5-0.2,4.5-0.4,4.8-0.1c0.3,0.3,0.3,1.3,0.3,1.3s-3.5,0.1-4.7,0.1 c-1.1,0-1-0.5-2.6,0.1L380.3,244.8z"></path> </g> <g> <g> <polygon points="389,285.3 388.2,285.2 388.2,267.3 389,267.3 "></polygon> <path d="M388.6,270c0,0,5-2.7,6.7-3.2l0-0.2c0,0-3,1.2-6.7,2.8L388.6,270z"></path> <path d="M395.3,266.5c0,0,1.1-0.5,1.4-0.7c0.4-0.2,3-0.3,3.1-0.1c0.1,0.3,0.2,0.9,0.2,0.9s-2.3,0-3.1,0c-0.7,0-0.6-0.3-1.7,0.1 L395.3,266.5z"></path> </g> </g> <g> <g> <polygon points="396.8,285.5 396.2,285.5 396.2,273.9 396.8,273.9 "></polygon> <path d="M396.4,275.3c0,0,2.5-1.2,3.6-1.6l0-0.2c0,0-1.2,0.4-3.6,1.5L396.4,275.3z"></path> <path d="M400,273.5l0.9-0.4l2,0l0.1,0.6c0,0-1.4,0-2,0c-0.4,0-0.4-0.1-1,0.1L400,273.5z"></path> </g> </g> <g> <rect x="399.8" y="278.7" width="0.5" height="7"></rect> <g> <path d="M400.1,280c0,0,1.7-1.2,2.7-1.7l0-0.2c0,0-0.6,0.3-2.7,1.4L400.1,280z"></path> <path d="M402.8,278.1l0.9-0.4l2,0l0.1,0.6c0,0-1.5,0-2,0c-0.5,0-0.4-0.2-1.1,0L402.8,278.1z"></path> </g> </g> </g> <g> <path d="M293.9,288.6c-2.3-0.6-5.1,0-5.1,0V88h5.1C293.9,88,293.9,284.7,293.9,288.6z"></path> <polygon points="291.6,99.3 325.4,82.4 325.4,84.4 291.5,102.8 "></polygon> <path d="M323.1,85.6l-0.6-1.7c0,0,8.7-4.6,10.2-5.1c6-1.5,13.9-1.4,14.8-0.7c0.9,0.7,0.8,3.3,0.8,3.3l-0.4,1.2l-15.2,0.5 c0,0-0.8-2.2-4.3-0.2C324.8,84.9,323.1,85.6,323.1,85.6z"></path> </g> <g> <g> <path class="st8" d="M209.8,2.6c9.6,21.9,22.1,45,37.9,65.1c20.5,26.1,44.4,31.1,44.4,31.1c-36.7-7.1-64.5-52.8-83-96.1 c0,0-0.3-0.6,0-0.7C209.5,1.8,209.8,2.6,209.8,2.6z"></path> <path class="st8" d="M149.8,10.2c17.8,33.1,42.7,69,74.3,89.9c35.7,23.6,67.8,16.9,67.8,16.9S217,139.2,148.7,10.7 c0,0-0.9-1.4-0.2-1.7C149.1,8.7,149.8,10.2,149.8,10.2z"></path> </g> <g> <path class="st8" d="M333.6,204.3c-20.2-11.5-42.3-110.9-42.3-110.9l-0.8,0.4c0,0,33.1,139.3,51,105.6 C341.5,199.4,337.8,206.7,333.6,204.3z"></path> <path class="st8" d="M332,197c-20-8.4-40.7-103.6-40.7-103.6l-0.6,0.2c0,0,29.2,132.8,50.8,97.9C341.5,191.6,336.8,199,332,197z"></path> </g> </g> <g> <g> <path class="st2" d="M423.3,280.3c0,0.6-0.5,1-1,1c-0.6,0-1-0.5-1-1c0-0.6,0.5-1,1-1C422.8,279.2,423.3,279.7,423.3,280.3z"></path> <path class="st2" d="M427.6,278.6c0,0.5-0.4,0.9-0.9,0.9c-0.5,0-0.9-0.4-0.9-0.9c0-0.5,0.4-0.9,0.9-0.9 C427.1,277.7,427.6,278.1,427.6,278.6z"></path> <path class="st2" d="M431,277.9c0,0.5-0.4,0.9-0.9,0.9c-0.5,0-0.9-0.4-0.9-0.9c0-0.5,0.4-0.9,0.9-0.9 C430.6,277.1,431,277.4,431,277.9z"></path> <path class="st2" d="M434.1,277.6c0,0.4-0.3,0.7-0.7,0.7c-0.4,0-0.7-0.3-0.7-0.7c0-0.4,0.3-0.7,0.7-0.7 C433.8,276.9,434.1,277.2,434.1,277.6z"></path> <path class="st2" d="M436.6,277.9c0,0.3-0.2,0.5-0.5,0.5s-0.5-0.2-0.5-0.5c0-0.3,0.2-0.5,0.5-0.5S436.6,277.6,436.6,277.9z"></path> <circle class="st2" cx="417.7" cy="282.4" r="1.2"></circle> <path class="st2" d="M414.4,282.8c0,0.7-0.5,1.2-1.2,1.2c-0.7,0-1.2-0.5-1.2-1.2c0-0.7,0.5-1.2,1.2-1.2 C413.8,281.6,414.4,282.2,414.4,282.8z"></path> </g> <g> <path class="st2" d="M365.9,181c0,0-0.1,1.1-0.3,1.6c-0.3,0.5-5.7,0.7-6,0c-0.4-0.7-0.6-1.5-0.6-1.5S362.7,180.5,365.9,181z"></path> <path class="st2" d="M387.4,244.9c0,0-0.3,0.7-0.6,1c-0.3,0.4-3.9,0.3-4.1,0c-0.2-0.3-0.5-1-0.5-1S385.2,244.6,387.4,244.9z"></path> <path class="st2" d="M399.8,266.5c0,0-0.1,0.5-0.2,0.8c-0.1,0.3-2.7,0.2-2.8,0c-0.1-0.2-0.3-0.7-0.3-0.7S398.3,266.3,399.8,266.5z "></path> <path class="st2" d="M346.9,81.4c0,0-0.1,1.8-0.3,3.4c-0.2,1.6-10.5,2.4-12.2,0.1c0,0-0.9-2-1.1-2.9 C335,80.9,344.3,80.6,346.9,81.4z"></path> <path class="st2" d="M409.8,281.6c0,0,0,0.4-0.2,0.6c-0.2,0.2-1.2,0.2-1.4,0c-0.2-0.2-0.2-0.3-0.2-0.5 C408,281.4,409.5,281.2,409.8,281.6z"></path> <path class="st2" d="M405.8,278.1c0,0,0,0.5-0.2,0.8c-0.2,0.3-1.4,0.1-1.6-0.1c-0.2-0.3-0.2-0.6-0.2-0.6S404.9,277.9,405.8,278.1z "></path> <path class="st2" d="M403.4,273.6c0,0,0,0.4-0.3,0.7c-0.3,0.3-1.7,0.1-1.9-0.2c-0.2-0.3-0.3-0.6-0.3-0.6S402.3,273.3,403.4,273.6z "></path> </g> </g> <path class="st9" d="M341.4,185.5c0.4,17.2,12.5,70.8,18.7,76c4.7,3.9,8.8-3.8,9.6-10.8"></path> <g> <path class="st5" d="M369.4,248.6c0,0,2.3,13.3,9.4,23.5c7.1,10.3,9.7-0.8,9.7-0.8"></path> <path class="st5" d="M369.4,248.6c0,0,5.3,16.6,11.7,23.4c6.4,6.8,7.5,2.4,7.5,2.4"></path> </g> <g> <path class="st10" d="M388.6,268.8c1.2,4.1,2.7,8.8,5.8,11.8c1.1,1,2.5,2,4,2.3c3,0.4,3.8-1,4.3-3.4"></path> <path class="st10" d="M388.5,269.8c0.4,2,1.6,6,2.6,7.9c1.6,3.1,4,6.6,7.9,5c3-1.3,3.8-3.6,3.8-3.6"></path> </g> <path class="st3" d="M235.7,273.1c-3-0.4-3.4,8.4-3.3,11.7c1.7-0.3,3.3-0.1,3.3-0.1S235.8,274.8,235.7,273.1z"></path> <g> <path class="st2" d="M147.5,273c-8.6-2.5-25.1-0.4-29.9,3.5c-4.8,3.9-5.7,9.1-5.7,10.1c0,3.4,23.4,3,30-3.7 C146.2,278.5,147.5,273,147.5,273z"></path> <path class="st3" d="M14.1,288.9c8.6,2.9,20.2,2.8,20.3,0.6c0.1-0.8-0.3-5.4-4.1-9.1c-1.9-1.9-6.8-3.8-12.4-5.2c0,0-0.9,2-2.1,6.9 C14.5,287.1,14.1,288.9,14.1,288.9z"></path> <path class="st2" d="M128.6,305.2c0,2-2.3,3.6-5.1,3.6c-2.8,0-5.1-1.6-5.1-3.6c0-2,2.3-3.6,5.1-3.6 C126.3,301.5,128.6,303.2,128.6,305.2z"></path> <path class="st3" d="M14.9,305.4c0,1.8-1.9,3.3-4.2,3.3c-2.3,0-4.2-1.5-4.2-3.3s1.9-3.3,4.2-3.3C13,302.1,14.9,303.6,14.9,305.4z"></path> <polygon class="st3" points="82.4,320.5 43.9,319.8 43.9,310.2 82.4,310.2 "></polygon> </g> <g> <g> <path class="st11" d="M340.7,90.9c0.6,1.1,1.5,2.4,2,2.8"></path> <path class="st11" d="M338,96.4c0.7,0.9,1.2,2.1,2,3"></path> <path class="st11" d="M343.5,100c0.5,1,0.9,1.7,1.3,2.3"></path> <path class="st11" d="M348.8,98.2c0.2,0.9,0.8,1.9,1.5,2.7"></path> <path class="st11" d="M356,96c0.4,0.3,0.8,0.7,1.2,1.2"></path> <path class="st11" d="M339.8,106.7c0.6,1.3,1.1,2.3,2,3.3"></path> <path class="st11" d="M348.6,107.2c0.3,0.8,0.7,1.5,1,2"></path> <path class="st11" d="M358.1,103.2c0.5,0.8,1.3,1.5,1.8,2.3"></path> <path class="st11" d="M366.3,104c0.6,0.7,1.3,1.6,2,2.3"></path> <path class="st11" d="M355.6,111.7c0.2,1.1,1,1.9,1.5,2.8"></path> <path class="st11" d="M340,118.1c0.4,1,0.8,2,1.3,2.6"></path> <path class="st11" d="M367.9,116.4c0.4,1.1,0.9,1.8,1.7,2.5"></path> <path class="st11" d="M348,122.6c0.4,1,0.8,2,1.5,2.8"></path> <path class="st11" d="M359.5,122.3c0.5,0.7,1,1.3,1.5,2"></path> <path class="st11" d="M366.3,121c0.4,0.7,0.9,1.2,1.5,1.7"></path> <path class="st11" d="M372.8,121c0.6,1.1,1.4,2.3,2.2,3.3"></path> <path class="st11" d="M361.2,133.6c0.6,1.3,1.1,1.9,1.8,3.2"></path> <path class="st11" d="M366.9,130.8c0.4,0.7,1,1.5,1.7,2.2"></path> <path class="st11" d="M350.3,132.1c0.7,1,1.3,2,1.8,3"></path> <path class="st11" d="M340.2,131.4c0.5,1.2,1.1,2.1,1.8,2.8"></path> <path class="st11" d="M384.5,145.9c0.2,0.9,0.8,1.6,1.3,2.3"></path> <path class="st11" d="M357.7,145.1c0.5,1.3,1.2,2.4,1.6,3"></path> <path class="st11" d="M372.8,142.1c0.5,1,1,1.8,1.7,2.5"></path> </g> <g> <path class="st6" d="M364.2,187.8c0.4,0.6,0.5,1.3,1.1,1.8"></path> <path class="st6" d="M369.7,192.4c0.1,0.7,0.7,1.5,1,2"></path> <path class="st6" d="M366.1,194.3c0.2,0.5,0.6,0.9,0.8,1.3"></path> <path class="st6" d="M364.8,196.9c0.1,0.6,0.6,1.1,0.9,1.5"></path> <path class="st6" d="M368.3,199.3c0.3,0.6,0.6,1.2,1,1.8"></path> <path class="st6" d="M364.8,202.7c0.1,0.4,0.3,0.7,0.5,1.1"></path> <path class="st6" d="M371.1,209.2c0.1,0.4,0.3,0.8,0.6,1.2"></path> </g> </g> <g> <path class="st12" d="M390.4,264c-0.2-0.4-0.4-0.7-0.5-0.9"></path> <path class="st12" d="M393.7,258c-0.1-0.3-0.3-0.6-0.4-0.8"></path> <path class="st12" d="M389.9,259.6c-0.2-0.3-0.5-0.6-0.7-0.9"></path> <path class="st12" d="M390.5,249.5c-0.3-0.3-0.5-0.6-0.8-0.9"></path> <path class="st12" d="M393.5,251.9c-0.1-0.4-0.4-0.7-0.4-0.7"></path> <path class="st12" d="M389.4,251.9c-0.2-0.3-0.4-0.5-0.6-0.8"></path> <path class="st12" d="M386.7,252.4c0,0-0.4-0.4-0.6-0.7"></path> <path class="st12" d="M389.7,255.7c-0.2-0.5-0.5-0.8-0.7-1.3"></path> <path class="st12" d="M386.8,248.8c-0.1-0.3-0.3-0.7-0.5-1"></path> <path class="st12" d="M387.1,255.8c-0.2-0.5-0.5-0.8-0.7-1.1"></path> <path class="st12" d="M393,260.7c-0.1-0.2-0.4-0.5-0.5-0.7"></path> </g> <path class="st3" d="M293.9,142.1c0-4.3,0.1-11.5-1.3-9.6c-1.4,1.9-2,8.9-1.5,37.5c0.6,28.6,1.9,41.8,2.8,46.3 C293.9,216.3,293.9,146.3,293.9,142.1z"></path> </svg> 