<svg id="Layer_1" xmlns="http://www.w3.org/2000/svg" viewBox="0 0 566.9 56.7"><style>.st0{fill:#fff}</style><g id="XMLID_2_"><g id="XMLID_4_"><path id="XMLID_31_" class="st0" d="M20.2 33.3c-.9 0-1.3-.4-1.3-1.3v-2.8c0-.9.4-1.3 1.3-1.3h17.4c.9 0 1.3.4 1.3 1.3v24.5c0 .9-.4 1.3-1.3 1.3h-2.8c-.9 0-1.3-.4-1.3-1.3v-5.4c-2.6 4.5-8 7.3-14 7.3C7.3 55.6 0 46.2 0 35V21.7C0 9 8.6.8 19.6.8S37 8.4 38.5 17v1.3c0 .4-.2.9-.9.9h-4.1c-.4 0-.9-.4-1.1-1.3-.6-5.4-5.2-11.4-13.3-11.4-7.5 0-13.8 5.8-13.8 15.5v13c0 9.7 6.2 15.3 13.8 15.3 9.5 0 13.3-8 13.3-13.1v-3.9H20.2z"/><path id="XMLID_30_" class="st0" d="M50.9 55c-.9 0-1.3-.4-1.3-1.3V18.5c0-.9.4-1.3 1.3-1.3h3.2c.6 0 1.3.6 1.3 1.3v3.7c1.7-3 4.9-5.8 10.5-5.8 9.2 0 14.2 6.9 14.2 17V54c0 .9-.6 1.3-1.3 1.3h-3.2c-.9 0-1.3-.4-1.3-1.3V32.9c0-7.3-3.9-11.4-9.7-11.4-5.6 0-9.5 4.1-9.5 11.4V54c0 .9-.6 1.3-1.3 1.3h-3V55z"/><path id="XMLID_27_" class="st0" d="M90.3 5.6c0-2.4 1.5-3.9 3.9-3.9s3.9 1.5 3.9 3.9-1.5 3.9-3.9 3.9c-2.4-.1-3.9-1.8-3.9-3.9zM92.4 55c-.9 0-1.3-.4-1.3-1.3V18.5c0-.9.4-1.3 1.3-1.3h3.2c.6 0 1.3.6 1.3 1.3V54c0 .9-.6 1.3-1.3 1.3h-3.2V55z"/><path id="XMLID_26_" class="st0" d="M171.9 55c-10.3 0-12.2-4.5-12.2-13.3V22.3h-5.8c-.9 0-1.3-.4-1.3-1.3v-2.6c0-.9.4-1.3 1.3-1.3 4.1 0 6-.9 6-5.8V8.6c0-.9.4-1.3 1.3-1.3h3c.9 0 1.3.6 1.3 1.3v8.6h8.6c.9 0 1.3.6 1.3 1.3V21c0 .9-.4 1.3-1.3 1.3h-8.6V41c0 6.7.9 8.6 7.1 8.6h1.5c.9 0 1.3.6 1.3 1.3v2.8c0 .9-.4 1.3-1.3 1.3h-2.2z"/><path id="XMLID_25_" class="st0" d="M216.8 21c0 .9-.4 1.3-1.3 1.3h-8.6v31.6c0 .9-.6 1.3-1.3 1.3h-3.2c-.9 0-1.3-.4-1.3-1.3V22.3h-5.8c-.9 0-1.3-.4-1.3-1.3v-2.6c0-.9.4-1.3 1.3-1.3h5.8V16c0-9.9 2.4-14.2 12.9-14.2h1.3c.9 0 1.3.6 1.3 1.3V6c0 .6-.4 1.3-1.3 1.3H214c-6 0-7.1 1.3-7.1 8.8v1.1h8.6c.9 0 1.3.6 1.3 1.3V21z"/><path id="XMLID_22_" class="st0" d="M222 33.3c0-10.5 6.7-17 15.5-17s15.5 6.2 15.5 17v5.6c0 10.7-6.7 16.8-15.5 16.8S222 49.4 222 38.9v-5.6zm5.8 6c0 7.5 4.1 11.4 9.9 11.4 5.8 0 9.7-3.9 9.7-11.4v-6.4c0-7.3-4.1-11.4-9.7-11.4-5.8 0-9.9 4.1-9.9 11.4v6.4z"/><path id="XMLID_21_" class="st0" d="M263.5 55c-.9 0-1.3-.4-1.3-1.3V18.5c0-.9.4-1.3 1.3-1.3h2.8c.9 0 1.3.6 1.3 1.3v5.2c1.7-3.4 4.9-6.4 10.7-6.4h1.1c.9 0 1.3.6 1.3 1.3v3c0 .9-.6 1.3-1.3 1.3h-1.1c-7.5 0-10.3 6.2-10.3 12.5v18.5c0 .9-.4 1.3-1.3 1.3h-3.2z"/><path id="XMLID_20_" class="st0" d="M322.3 21c0 .9-.4 1.3-1.3 1.3h-8.6v31.6c0 .9-.6 1.3-1.3 1.3h-3.2c-.9 0-1.3-.4-1.3-1.3V22.3h-5.8c-.9 0-1.3-.4-1.3-1.3v-2.6c0-.9.4-1.3 1.3-1.3h5.8V16c0-9.9 2.4-14.2 12.9-14.2h1.3c.9 0 1.3.6 1.3 1.3V6c0 .6-.4 1.3-1.3 1.3h-1.3c-6 0-7.1 1.3-7.1 8.8v1.1h8.6c.9 0 1.3.6 1.3 1.3V21z"/><path id="XMLID_19_" class="st0" d="M331.8 55c-.9 0-1.3-.4-1.3-1.3V18.5c0-.9.4-1.3 1.3-1.3h2.8c.9 0 1.3.6 1.3 1.3v5.2c1.7-3.4 4.9-6.4 10.7-6.4h1.1c.9 0 1.3.6 1.3 1.3v3c0 .9-.6 1.3-1.3 1.3h-1.1c-7.5 0-10.3 6.2-10.3 12.5v18.5c0 .9-.4 1.3-1.3 1.3h-3.2z"/><path id="XMLID_16_" class="st0" d="M383.2 53.7c0 .9-.6 1.3-1.3 1.3h-2.8c-.9 0-1.3-.4-1.3-1.3V50c-1.7 3.7-6 5.6-10.5 5.6h-1.5c-7.1 0-12.2-3.7-12.2-11.2 0-9 7.1-11.2 14-11.2h10.1v-2.6c0-4.7-.9-9.5-8.8-9.5-6 0-7.5 2.4-8.2 5.4 0 .4-.4 1.1-1.1 1.1h-3.2c-.6 0-1.1-.4-1.1-1.1v-.4c.6-4.5 3.4-10.1 13.5-10.1 12.9 0 14.2 8.2 14.2 14.8v22.8h.2zm-15.7-15.5c-6.2 0-8.6 1.9-8.6 6.4 0 4.3 3.4 6.2 7.5 6.2h1.5c8 0 9.7-5.8 9.7-10.3v-2.4h-10.1z"/><path id="XMLID_15_" class="st0" d="M398 55h-3.2c-.9 0-1.3-.4-1.3-1.3V18.5c0-.9.4-1.3 1.3-1.3h3.2c.6 0 1.3.6 1.3 1.3v3.7c1.5-2.6 4.5-5.8 10.1-5.8s9.7 2.4 11.8 7.1c2.4-4.5 6.2-7.1 11.8-7.1 10.7 0 13.8 6.7 13.8 17.6v20c0 .9-.4 1.3-1.3 1.3h-3.2c-.9 0-1.3-.4-1.3-1.3V33.7c0-7.1-1.5-12.2-8.8-12.2-6.9 0-9 4.5-9 12.2v20.2c0 .9-.6 1.3-1.3 1.3h-3.2c-.9 0-1.3-.4-1.3-1.3V33.7c0-8-2.1-12.2-8.8-12.2-7.3 0-9 5.2-9 12.2v20.2c-.3.7-1 1.1-1.6 1.1z"/><path id="XMLID_14_" class="st0" d="M470.6 55c-10.3 0-12.2-4.5-12.2-13.3V22.3h-5.8c-.9 0-1.3-.4-1.3-1.3v-2.6c0-.9.4-1.3 1.3-1.3 4.1 0 6-.9 6-5.8V8.6c0-.9.4-1.3 1.3-1.3h3c.9 0 1.3.6 1.3 1.3v8.6h8.6c.9 0 1.3.6 1.3 1.3V21c0 .9-.4 1.3-1.3 1.3h-8.6V41c0 6.7.9 8.6 7.1 8.6h1.5c.9 0 1.3.6 1.3 1.3v2.8c0 .9-.4 1.3-1.3 1.3h-2.2z"/><path id="XMLID_11_" class="st0" d="M481.6 5.6c0-2.4 1.5-3.9 3.9-3.9s3.9 1.5 3.9 3.9-1.5 3.9-3.9 3.9-3.9-1.8-3.9-3.9zm2.1 49.4c-.9 0-1.3-.4-1.3-1.3V18.5c0-.9.4-1.3 1.3-1.3h3.2c.6 0 1.3.6 1.3 1.3V54c0 .9-.6 1.3-1.3 1.3h-3.2V55z"/><path id="XMLID_8_" class="st0" d="M523.1 50.3c-2.1 3.4-5.8 5.6-11 5.6-8.4 0-14.4-6-14.4-17v-5.6c0-11 6-17 14.4-17 5.4 0 9 2.4 11 5.6V3.2c0-.9.4-1.3 1.3-1.3h3.2c.9 0 1.3.6 1.3 1.3v50.5c0 .9-.6 1.3-1.3 1.3h-3.2c-.6 0-1.3-.4-1.3-1.3v-3.4zm0-17.9c0-6.7-3.9-11-9.9-11s-9.9 4.5-9.9 11.4v6.4c0 7.1 3.7 11.4 9.7 11.4 6 0 9.9-4.3 9.9-11.4v-6.9h.2z"/><path id="XMLID_5_" class="st0" d="M566.9 53.7c0 .9-.6 1.3-1.3 1.3h-2.8c-.9 0-1.3-.4-1.3-1.3V50c-1.7 3.7-6 5.6-10.5 5.6h-1.5c-7.1 0-12.2-3.7-12.2-11.2 0-9 7.1-11.2 14-11.2h10.1v-2.6c0-4.7-.9-9.5-8.8-9.5-6 0-7.5 2.4-8.2 5.4 0 .4-.4 1.1-1.1 1.1H540c-.6 0-1.1-.4-1.1-1.1v-.4c.6-4.5 3.4-10.1 13.5-10.1 12.9 0 14.2 8.2 14.2 14.8v22.8h.3zm-15.7-15.5c-6.2 0-8.6 1.9-8.6 6.4 0 4.3 3.4 6.2 7.5 6.2h1.5c8 0 9.7-5.8 9.7-10.3v-2.4h-10.1z"/></g><path id="XMLID_3_" d="M149.8 15.5c-.9.6-1.5 1.1-2.1 1.1-.2 0-.2 0-.2-.2s.2-.4.6-1.1.9-1.3.9-1.7c0-.6-.9-1.1-1.7-1.1-7.1 0-33.3 11.8-33.3 15 0 .4.4.6 1.3.9 1.5.2 7.1-1.3 12.7-1.3 4.3 0 8.4.9 10.3 3.7 1.1 1.7 1.7 3.4 1.7 5.4 0 4.9-4.3 10.3-15 15.7-3.9 1.9-7.3 2.6-9.9 2.6-4.7 0-7.5-1.7-8.2-2.4-.4-.2-1.1-.9-1.1-1.3s.4-1.1 1.7-1.5c13.5-5.6 26.9-14 26.9-17.6 0-1.1-1.3-1.7-4.1-1.7-2.6 0-6.4.4-12 1.7-1.3.2-2.4.4-3.2.4-3 0-4.1-1.5-5.8-3-1.1-.9-1.7-2.1-1.7-3.7 0-7.5 17.8-18.9 37.6-23.2 1.5-.4 2.8.2 3.9 1.1 1.9 1.5 3 4.7 3 7.5-.8 2.1-1.2 3.8-2.3 4.7" fill="#f89821"/></g></svg>